<svg xmlns="http://www.w3.org/2000/svg" viewBox="0 0 24 24" id="audible"><path fill="#FF9800" d="m24 9.874-12 7.584-12-7.58v2.046L12 19.5l12-7.58z"></path><path fill="#FF9800" d="m16.706 12.602 1.766-1.114c-1.395-2.115-3.776-3.51-6.476-3.51S6.915 9.369 5.524 11.48h.011c.094-.087.191-.171.289-.254 3.364-2.819 8.227-2.201 10.882 1.376z"></path><path fill="#FF9800" d="M8.453 13.316a3.693 3.693 0 0 1 2.153-.709c1.29 0 2.445.697 3.24 1.804l1.702-1.076a4.318 4.318 0 0 0-3.555-1.876 4.318 4.318 0 0 0-3.54 1.857zm11.114-2.521 1.83-1.152C19.391 6.546 15.93 4.5 11.996 4.5c-3.882 0-7.373 2.028-9.394 5.139.371-.398.851-.891 1.282-1.235 4.942-3.953 11.933-2.895 15.656 2.354l.027.037z"></path></svg>